<mxfile host="app.diagrams.net" agent="Mozilla/5.0 (Windows NT 10.0; Win64; x64) AppleWebKit/537.36 (KHTML, like Gecko) Chrome/130.0.0.0 Safari/537.36" version="26.1.0">
  <diagram name="Trang-1" id="l8EC6sPlRhv4mEz4t7tx">
    <mxGraphModel dx="1647" dy="928" grid="1" gridSize="10" guides="1" tooltips="1" connect="1" arrows="1" fold="1" page="1" pageScale="1" pageWidth="827" pageHeight="1169" math="0" shadow="0">
      <root>
        <mxCell id="0" />
        <mxCell id="1" parent="0" />
        <mxCell id="d_iDrXWvFy7hXXPem3D1-1" value="" style="edgeStyle=orthogonalEdgeStyle;rounded=0;orthogonalLoop=1;jettySize=auto;html=1;exitX=0.5;exitY=1;exitDx=0;exitDy=0;entryX=0.5;entryY=0;entryDx=0;entryDy=0;" parent="1" source="d_iDrXWvFy7hXXPem3D1-2" target="d_iDrXWvFy7hXXPem3D1-4" edge="1">
          <mxGeometry relative="1" as="geometry">
            <mxPoint x="265" y="170" as="sourcePoint" />
            <mxPoint x="215" y="200" as="targetPoint" />
          </mxGeometry>
        </mxCell>
        <mxCell id="d_iDrXWvFy7hXXPem3D1-2" value="" style="ellipse;fillColor=strokeColor;html=1;" parent="1" vertex="1">
          <mxGeometry x="200" y="130" width="30" height="30" as="geometry" />
        </mxCell>
        <mxCell id="d_iDrXWvFy7hXXPem3D1-3" value="Khách hàng" style="swimlane;whiteSpace=wrap;html=1;" parent="1" vertex="1">
          <mxGeometry x="80" y="80" width="270" height="1010" as="geometry" />
        </mxCell>
        <mxCell id="d_iDrXWvFy7hXXPem3D1-13" value="Hệ thống" style="swimlane;whiteSpace=wrap;html=1;" parent="1" vertex="1">
          <mxGeometry x="350" y="80" width="270" height="1010" as="geometry" />
        </mxCell>
        <mxCell id="d_iDrXWvFy7hXXPem3D1-39" value="Đăng ký vay Online" style="swimlane;whiteSpace=wrap;html=1;" parent="1" vertex="1">
          <mxGeometry x="80" y="60" width="810" height="1030" as="geometry" />
        </mxCell>
        <mxCell id="d_iDrXWvFy7hXXPem3D1-312" value="Hệ thống" style="swimlane;whiteSpace=wrap;html=1;" parent="d_iDrXWvFy7hXXPem3D1-39" vertex="1">
          <mxGeometry x="540" y="20" width="270" height="1010" as="geometry" />
        </mxCell>
        <mxCell id="d_iDrXWvFy7hXXPem3D1-315" style="edgeStyle=orthogonalEdgeStyle;rounded=0;orthogonalLoop=1;jettySize=auto;html=1;exitX=0.5;exitY=1;exitDx=0;exitDy=0;" parent="d_iDrXWvFy7hXXPem3D1-312" source="d_iDrXWvFy7hXXPem3D1-314" edge="1">
          <mxGeometry relative="1" as="geometry">
            <mxPoint x="135" y="740" as="targetPoint" />
          </mxGeometry>
        </mxCell>
        <mxCell id="d_iDrXWvFy7hXXPem3D1-314" value="Xét duyệt đăng ký vay" style="rounded=1;whiteSpace=wrap;html=1;fontSize=12;glass=0;strokeWidth=1;shadow=0;" parent="d_iDrXWvFy7hXXPem3D1-312" vertex="1">
          <mxGeometry x="87.5" y="670" width="95" height="40" as="geometry" />
        </mxCell>
        <mxCell id="d_iDrXWvFy7hXXPem3D1-316" value="" style="rhombus;whiteSpace=wrap;html=1;" parent="d_iDrXWvFy7hXXPem3D1-312" vertex="1">
          <mxGeometry x="122.5" y="740" width="25" height="30" as="geometry" />
        </mxCell>
        <mxCell id="d_iDrXWvFy7hXXPem3D1-5" value="Chọn gói vay muốn đăng ký" style="rounded=1;whiteSpace=wrap;html=1;fontSize=12;glass=0;strokeWidth=1;shadow=0;" parent="d_iDrXWvFy7hXXPem3D1-39" vertex="1">
          <mxGeometry x="75" y="240" width="120" height="40" as="geometry" />
        </mxCell>
        <mxCell id="d_iDrXWvFy7hXXPem3D1-100" style="edgeStyle=orthogonalEdgeStyle;rounded=0;orthogonalLoop=1;jettySize=auto;html=1;exitX=0.5;exitY=1;exitDx=0;exitDy=0;entryX=0;entryY=0.5;entryDx=0;entryDy=0;" parent="d_iDrXWvFy7hXXPem3D1-39" source="d_iDrXWvFy7hXXPem3D1-6" target="d_iDrXWvFy7hXXPem3D1-23" edge="1">
          <mxGeometry relative="1" as="geometry" />
        </mxCell>
        <mxCell id="d_iDrXWvFy7hXXPem3D1-6" value="Điền thông tin đăng ký" style="rounded=1;whiteSpace=wrap;html=1;fontSize=12;glass=0;strokeWidth=1;shadow=0;" parent="d_iDrXWvFy7hXXPem3D1-39" vertex="1">
          <mxGeometry x="88.13" y="450" width="93.75" height="30" as="geometry" />
        </mxCell>
        <mxCell id="d_iDrXWvFy7hXXPem3D1-23" value="Kiểm tra thông tin" style="rounded=1;whiteSpace=wrap;html=1;" parent="d_iDrXWvFy7hXXPem3D1-39" vertex="1">
          <mxGeometry x="351.87" y="490" width="106.25" height="20" as="geometry" />
        </mxCell>
        <mxCell id="d_iDrXWvFy7hXXPem3D1-101" style="edgeStyle=orthogonalEdgeStyle;rounded=0;orthogonalLoop=1;jettySize=auto;html=1;exitX=1;exitY=0.5;exitDx=0;exitDy=0;entryX=1;entryY=0.5;entryDx=0;entryDy=0;" parent="d_iDrXWvFy7hXXPem3D1-39" source="d_iDrXWvFy7hXXPem3D1-21" target="d_iDrXWvFy7hXXPem3D1-6" edge="1">
          <mxGeometry relative="1" as="geometry">
            <mxPoint x="474.9999999999998" y="610" as="targetPoint" />
            <Array as="points">
              <mxPoint x="500" y="555" />
              <mxPoint x="500" y="465" />
            </Array>
          </mxGeometry>
        </mxCell>
        <mxCell id="d_iDrXWvFy7hXXPem3D1-102" value="[không hợp lệ]" style="edgeLabel;html=1;align=center;verticalAlign=middle;resizable=0;points=[];" parent="d_iDrXWvFy7hXXPem3D1-101" vertex="1" connectable="0">
          <mxGeometry x="-0.265" relative="1" as="geometry">
            <mxPoint x="-87" as="offset" />
          </mxGeometry>
        </mxCell>
        <mxCell id="d_iDrXWvFy7hXXPem3D1-21" value="" style="rhombus;whiteSpace=wrap;html=1;" parent="d_iDrXWvFy7hXXPem3D1-39" vertex="1">
          <mxGeometry x="392.5" y="540" width="25" height="30" as="geometry" />
        </mxCell>
        <mxCell id="d_iDrXWvFy7hXXPem3D1-22" value="" style="edgeStyle=orthogonalEdgeStyle;rounded=0;orthogonalLoop=1;jettySize=auto;html=1;" parent="d_iDrXWvFy7hXXPem3D1-39" source="d_iDrXWvFy7hXXPem3D1-23" target="d_iDrXWvFy7hXXPem3D1-21" edge="1">
          <mxGeometry relative="1" as="geometry" />
        </mxCell>
        <mxCell id="d_iDrXWvFy7hXXPem3D1-113" style="edgeStyle=orthogonalEdgeStyle;rounded=0;orthogonalLoop=1;jettySize=auto;html=1;exitX=0.5;exitY=1;exitDx=0;exitDy=0;entryX=0;entryY=0.5;entryDx=0;entryDy=0;" parent="d_iDrXWvFy7hXXPem3D1-39" source="d_iDrXWvFy7hXXPem3D1-19" target="d_iDrXWvFy7hXXPem3D1-29" edge="1">
          <mxGeometry relative="1" as="geometry">
            <mxPoint x="387.1300000000001" y="835" as="targetPoint" />
          </mxGeometry>
        </mxCell>
        <mxCell id="d_iDrXWvFy7hXXPem3D1-313" style="edgeStyle=orthogonalEdgeStyle;rounded=0;orthogonalLoop=1;jettySize=auto;html=1;exitX=1;exitY=0.5;exitDx=0;exitDy=0;" parent="d_iDrXWvFy7hXXPem3D1-39" source="d_iDrXWvFy7hXXPem3D1-19" edge="1">
          <mxGeometry relative="1" as="geometry">
            <mxPoint x="630" y="710" as="targetPoint" />
          </mxGeometry>
        </mxCell>
        <mxCell id="d_iDrXWvFy7hXXPem3D1-19" value="Gửi đơn đăng ký tới ngân hàng" style="rounded=1;whiteSpace=wrap;html=1;fontSize=12;glass=0;strokeWidth=1;shadow=0;" parent="d_iDrXWvFy7hXXPem3D1-39" vertex="1">
          <mxGeometry x="305.62" y="690" width="95" height="40" as="geometry" />
        </mxCell>
        <mxCell id="d_iDrXWvFy7hXXPem3D1-20" value="[hợp lệ]" style="edgeStyle=orthogonalEdgeStyle;rounded=0;orthogonalLoop=1;jettySize=auto;html=1;entryX=0.5;entryY=0;entryDx=0;entryDy=0;exitX=0;exitY=0.5;exitDx=0;exitDy=0;" parent="d_iDrXWvFy7hXXPem3D1-39" source="d_iDrXWvFy7hXXPem3D1-21" target="d_iDrXWvFy7hXXPem3D1-19" edge="1">
          <mxGeometry relative="1" as="geometry">
            <mxPoint x="337.521739130435" y="610" as="targetPoint" />
          </mxGeometry>
        </mxCell>
        <mxCell id="d_iDrXWvFy7hXXPem3D1-112" style="edgeStyle=orthogonalEdgeStyle;rounded=0;orthogonalLoop=1;jettySize=auto;html=1;exitX=1;exitY=0.5;exitDx=0;exitDy=0;entryX=0;entryY=0.5;entryDx=0;entryDy=0;" parent="d_iDrXWvFy7hXXPem3D1-39" source="d_iDrXWvFy7hXXPem3D1-4" target="d_iDrXWvFy7hXXPem3D1-14" edge="1">
          <mxGeometry relative="1" as="geometry" />
        </mxCell>
        <mxCell id="d_iDrXWvFy7hXXPem3D1-4" value="Chọn &quot;Đăng ký vay Online&quot;" style="rounded=1;whiteSpace=wrap;html=1;fontSize=12;glass=0;strokeWidth=1;shadow=0;" parent="d_iDrXWvFy7hXXPem3D1-39" vertex="1">
          <mxGeometry x="75" y="140" width="120" height="40" as="geometry" />
        </mxCell>
        <mxCell id="d_iDrXWvFy7hXXPem3D1-303" style="edgeStyle=orthogonalEdgeStyle;rounded=0;orthogonalLoop=1;jettySize=auto;html=1;exitX=0.5;exitY=1;exitDx=0;exitDy=0;entryX=0.5;entryY=0;entryDx=0;entryDy=0;" parent="d_iDrXWvFy7hXXPem3D1-39" source="d_iDrXWvFy7hXXPem3D1-14" target="d_iDrXWvFy7hXXPem3D1-5" edge="1">
          <mxGeometry relative="1" as="geometry" />
        </mxCell>
        <mxCell id="d_iDrXWvFy7hXXPem3D1-14" value="Hiển thị màn hình đăng ký" style="rounded=1;whiteSpace=wrap;html=1;fontSize=12;glass=0;strokeWidth=1;shadow=0;" parent="d_iDrXWvFy7hXXPem3D1-39" vertex="1">
          <mxGeometry x="337.5" y="140" width="135" height="40" as="geometry" />
        </mxCell>
        <mxCell id="d_iDrXWvFy7hXXPem3D1-305" style="edgeStyle=orthogonalEdgeStyle;rounded=0;orthogonalLoop=1;jettySize=auto;html=1;exitX=0.5;exitY=1;exitDx=0;exitDy=0;entryX=0.5;entryY=0;entryDx=0;entryDy=0;" parent="d_iDrXWvFy7hXXPem3D1-39" source="d_iDrXWvFy7hXXPem3D1-15" target="d_iDrXWvFy7hXXPem3D1-304" edge="1">
          <mxGeometry relative="1" as="geometry" />
        </mxCell>
        <mxCell id="d_iDrXWvFy7hXXPem3D1-15" value="Kiểm tra điều kiện đăng ký" style="rounded=1;whiteSpace=wrap;html=1;fontSize=12;glass=0;strokeWidth=1;shadow=0;" parent="d_iDrXWvFy7hXXPem3D1-39" vertex="1">
          <mxGeometry x="331.25" y="300" width="147.5" height="40" as="geometry" />
        </mxCell>
        <mxCell id="d_iDrXWvFy7hXXPem3D1-90" style="edgeStyle=orthogonalEdgeStyle;rounded=0;orthogonalLoop=1;jettySize=auto;html=1;exitX=0.5;exitY=1;exitDx=0;exitDy=0;entryX=0;entryY=0.5;entryDx=0;entryDy=0;" parent="d_iDrXWvFy7hXXPem3D1-39" source="d_iDrXWvFy7hXXPem3D1-5" target="d_iDrXWvFy7hXXPem3D1-15" edge="1">
          <mxGeometry relative="1" as="geometry" />
        </mxCell>
        <mxCell id="d_iDrXWvFy7hXXPem3D1-29" value="Thông báo" style="rounded=1;whiteSpace=wrap;html=1;fontSize=12;glass=0;strokeWidth=1;shadow=0;" parent="d_iDrXWvFy7hXXPem3D1-39" vertex="1">
          <mxGeometry x="375" y="880" width="60" height="30" as="geometry" />
        </mxCell>
        <mxCell id="d_iDrXWvFy7hXXPem3D1-16" value="" style="ellipse;whiteSpace=wrap;html=1;aspect=fixed;" parent="d_iDrXWvFy7hXXPem3D1-39" vertex="1">
          <mxGeometry x="385" y="950" width="40" height="40" as="geometry" />
        </mxCell>
        <mxCell id="d_iDrXWvFy7hXXPem3D1-17" value="" style="ellipse;fillColor=strokeColor;html=1;" parent="d_iDrXWvFy7hXXPem3D1-39" vertex="1">
          <mxGeometry x="390" y="955" width="30" height="30" as="geometry" />
        </mxCell>
        <mxCell id="d_iDrXWvFy7hXXPem3D1-30" style="edgeStyle=orthogonalEdgeStyle;rounded=0;orthogonalLoop=1;jettySize=auto;html=1;entryX=0.5;entryY=0;entryDx=0;entryDy=0;" parent="d_iDrXWvFy7hXXPem3D1-39" source="d_iDrXWvFy7hXXPem3D1-29" target="d_iDrXWvFy7hXXPem3D1-16" edge="1">
          <mxGeometry relative="1" as="geometry" />
        </mxCell>
        <mxCell id="d_iDrXWvFy7hXXPem3D1-307" style="edgeStyle=orthogonalEdgeStyle;rounded=0;orthogonalLoop=1;jettySize=auto;html=1;exitX=0;exitY=0.5;exitDx=0;exitDy=0;entryX=0.5;entryY=0;entryDx=0;entryDy=0;" parent="d_iDrXWvFy7hXXPem3D1-39" source="d_iDrXWvFy7hXXPem3D1-304" target="d_iDrXWvFy7hXXPem3D1-6" edge="1">
          <mxGeometry relative="1" as="geometry" />
        </mxCell>
        <mxCell id="d_iDrXWvFy7hXXPem3D1-308" value="[đủ điều kiện]" style="edgeLabel;html=1;align=center;verticalAlign=middle;resizable=0;points=[];" parent="d_iDrXWvFy7hXXPem3D1-307" vertex="1" connectable="0">
          <mxGeometry x="-0.2231" y="2" relative="1" as="geometry">
            <mxPoint as="offset" />
          </mxGeometry>
        </mxCell>
        <mxCell id="d_iDrXWvFy7hXXPem3D1-309" style="edgeStyle=orthogonalEdgeStyle;rounded=0;orthogonalLoop=1;jettySize=auto;html=1;exitX=1;exitY=0.5;exitDx=0;exitDy=0;entryX=1;entryY=0.5;entryDx=0;entryDy=0;" parent="d_iDrXWvFy7hXXPem3D1-39" source="d_iDrXWvFy7hXXPem3D1-304" target="d_iDrXWvFy7hXXPem3D1-5" edge="1">
          <mxGeometry relative="1" as="geometry">
            <Array as="points">
              <mxPoint x="510" y="395" />
              <mxPoint x="510" y="260" />
            </Array>
          </mxGeometry>
        </mxCell>
        <mxCell id="d_iDrXWvFy7hXXPem3D1-310" value="[không đủ điều kiện]" style="edgeLabel;html=1;align=center;verticalAlign=middle;resizable=0;points=[];" parent="d_iDrXWvFy7hXXPem3D1-309" vertex="1" connectable="0">
          <mxGeometry x="0.1651" y="-1" relative="1" as="geometry">
            <mxPoint as="offset" />
          </mxGeometry>
        </mxCell>
        <mxCell id="d_iDrXWvFy7hXXPem3D1-304" value="" style="rhombus;whiteSpace=wrap;html=1;" parent="d_iDrXWvFy7hXXPem3D1-39" vertex="1">
          <mxGeometry x="392.5" y="380" width="25" height="30" as="geometry" />
        </mxCell>
        <mxCell id="d_iDrXWvFy7hXXPem3D1-317" style="edgeStyle=orthogonalEdgeStyle;rounded=0;orthogonalLoop=1;jettySize=auto;html=1;exitX=0;exitY=0.5;exitDx=0;exitDy=0;entryX=0.5;entryY=0;entryDx=0;entryDy=0;" parent="d_iDrXWvFy7hXXPem3D1-39" source="d_iDrXWvFy7hXXPem3D1-316" target="d_iDrXWvFy7hXXPem3D1-29" edge="1">
          <mxGeometry relative="1" as="geometry" />
        </mxCell>
        <mxCell id="d_iDrXWvFy7hXXPem3D1-319" value="[thành công]" style="edgeLabel;html=1;align=center;verticalAlign=middle;resizable=0;points=[];" parent="d_iDrXWvFy7hXXPem3D1-317" vertex="1" connectable="0">
          <mxGeometry x="0.1056" y="-1" relative="1" as="geometry">
            <mxPoint as="offset" />
          </mxGeometry>
        </mxCell>
        <mxCell id="d_iDrXWvFy7hXXPem3D1-318" style="edgeStyle=orthogonalEdgeStyle;rounded=0;orthogonalLoop=1;jettySize=auto;html=1;exitX=1;exitY=0.5;exitDx=0;exitDy=0;entryX=1;entryY=0.5;entryDx=0;entryDy=0;" parent="d_iDrXWvFy7hXXPem3D1-39" source="d_iDrXWvFy7hXXPem3D1-316" target="d_iDrXWvFy7hXXPem3D1-29" edge="1">
          <mxGeometry relative="1" as="geometry" />
        </mxCell>
        <mxCell id="d_iDrXWvFy7hXXPem3D1-320" value="[thất bại]" style="edgeLabel;html=1;align=center;verticalAlign=middle;resizable=0;points=[];" parent="d_iDrXWvFy7hXXPem3D1-318" vertex="1" connectable="0">
          <mxGeometry x="0.151" y="-1" relative="1" as="geometry">
            <mxPoint as="offset" />
          </mxGeometry>
        </mxCell>
      </root>
    </mxGraphModel>
  </diagram>
</mxfile>
